# xmcd
#
# Track frame offsets: 
#        150
#        19018
#        44812
#        65567
#        88568
#        119248
#        128646
#        151011
#        167914
#        191049
#
# Disc length: 2837 seconds
#
# Revision: 5
# Processed by: cddbd v1.5.2PL0 Copyright (c) Steve Scherf et al.
# Submitted via: ExactAudioCopy v0.99pb5
#
DISCID=8a0b130a
DTITLE=Friedemann - passion and pride
DYEAR=1999
DGENRE=Audiophile
TTITLE0=Describing a village
TTITLE1=Midsummer eclipse
TTITLE2=Tango pour quatre elles
TTITLE3=The stallion´s dream
TTITLE4=Spirit of the southern seas
TTITLE5=Toledo IV
TTITLE6=Passion and Pride
TTITLE7=Two ageing matadores talking
TTITLE8=Septuagesima
TTITLE9=Passionflower
EXTD=YEAR: 1999
EXTT0=
EXTT1=
EXTT2=
EXTT3=
EXTT4=
EXTT5=
EXTT6=
EXTT7=
EXTT8=
EXTT9=
PLAYORDER=
